<svg xmlns="http://www.w3.org/2000/svg" xmlns:xlink="http://www.w3.org/1999/xlink" width="128" zoomAndPan="magnify" viewBox="0 0 96 95.999999" height="128" preserveAspectRatio="xMidYMid meet" version="1.0"><defs><g/><clipPath id="96acb02584"><path d="M 0 7 L 96 7 L 96 89.160156 L 0 89.160156 Z M 0 7 " clip-rule="nonzero"/></clipPath><clipPath id="203ad32791"><path d="M 17.328125 27.554688 L 79.601562 27.554688 L 79.601562 56.355469 L 17.328125 56.355469 Z M 17.328125 27.554688 " clip-rule="nonzero"/></clipPath></defs><g clip-path="url(#96acb02584)"><path fill="#ffffff" d="M 66.660156 50.320312 C 63.414062 50.320312 60.78125 47.6875 60.78125 44.441406 C 60.78125 41.195312 63.414062 38.5625 66.660156 38.5625 C 69.910156 38.5625 72.539062 41.195312 72.539062 44.441406 C 72.539062 47.6875 69.910156 50.320312 66.660156 50.320312 Z M 47.0625 50.320312 C 43.816406 50.320312 41.183594 47.6875 41.183594 44.441406 C 41.183594 41.195312 43.816406 38.5625 47.0625 38.5625 C 50.308594 38.5625 52.941406 41.195312 52.941406 44.441406 C 52.941406 47.6875 50.308594 50.320312 47.0625 50.320312 Z M 27.460938 50.320312 C 24.214844 50.320312 21.582031 47.6875 21.582031 44.441406 C 21.582031 41.195312 24.214844 38.5625 27.460938 38.5625 C 30.710938 38.5625 33.34375 41.195312 33.34375 44.441406 C 33.34375 47.6875 30.710938 50.320312 27.460938 50.320312 Z M 48.601562 7.1875 C 22.242188 6.667969 0.542969 22.914062 0.140625 43.46875 C 0 50.617188 2.453125 57.34375 6.816406 63.097656 C 14.324219 72.746094 6.128906 89.328125 6.128906 89.328125 L 30.324219 78.90625 C 35.535156 80.554688 41.199219 81.511719 47.136719 81.628906 C 73.496094 82.148438 95.191406 65.90625 95.597656 45.351562 C 96.003906 24.792969 74.960938 7.707031 48.601562 7.1875 " fill-opacity="1" fill-rule="evenodd"/></g><g clip-path="url(#203ad32791)"><path fill="#ffffff" d="M 17.328125 27.554688 L 79.652344 27.554688 L 79.652344 56.355469 L 17.328125 56.355469 Z M 17.328125 27.554688 " fill-opacity="1" fill-rule="nonzero"/></g><g fill="#000000" fill-opacity="0.4"><g transform="translate(25.417307, 63.545873)"><g><path d="M 7.65625 -35.671875 L 16.640625 -35.671875 L 23.296875 0 L 16.03125 0 L 14.84375 -7.53125 L 9.59375 -7.53125 L 8.359375 0 L 0.921875 0 Z M 14.09375 -12.234375 L 12.203125 -26.15625 L 10.296875 -12.234375 Z M 14.09375 -12.234375 "/></g></g></g><g fill="#000000" fill-opacity="0.4"><g transform="translate(49.677225, 63.545873)"><g><path d="M 12.859375 0.53125 C 8.984375 0.53125 6.226562 -0.488281 4.59375 -2.53125 C 2.96875 -4.570312 2.15625 -7.515625 2.15625 -11.359375 L 2.15625 -24.21875 C 2.15625 -28.15625 2.960938 -31.128906 4.578125 -33.140625 C 6.191406 -35.148438 8.953125 -36.15625 12.859375 -36.15625 C 16.585938 -36.15625 19.226562 -35.257812 20.78125 -33.46875 C 22.332031 -31.675781 23.109375 -29.132812 23.109375 -25.84375 L 23.109375 -22.765625 L 15.40625 -22.765625 L 15.40625 -26.328125 C 15.40625 -27.710938 15.257812 -28.769531 14.96875 -29.5 C 14.675781 -30.238281 13.972656 -30.609375 12.859375 -30.609375 C 11.742188 -30.609375 11.007812 -30.21875 10.65625 -29.4375 C 10.300781 -28.65625 10.125 -27.578125 10.125 -26.203125 L 10.125 -9.421875 C 10.125 -8.015625 10.304688 -6.9375 10.671875 -6.1875 C 11.046875 -5.4375 11.773438 -5.0625 12.859375 -5.0625 C 13.941406 -5.0625 14.632812 -5.4375 14.9375 -6.1875 C 15.25 -6.9375 15.40625 -8.015625 15.40625 -9.421875 L 15.40625 -13.171875 L 23.109375 -13.171875 L 23.109375 -10.078125 C 23.109375 -6.734375 22.332031 -4.128906 20.78125 -2.265625 C 19.226562 -0.398438 16.585938 0.53125 12.859375 0.53125 Z M 12.859375 0.53125 "/></g></g></g><g fill="#000000" fill-opacity="1"><g transform="translate(23.471489, 61.600055)"><g><path d="M 7.65625 -35.671875 L 16.640625 -35.671875 L 23.296875 0 L 16.03125 0 L 14.84375 -7.53125 L 9.59375 -7.53125 L 8.359375 0 L 0.921875 0 Z M 14.09375 -12.234375 L 12.203125 -26.15625 L 10.296875 -12.234375 Z M 14.09375 -12.234375 "/></g></g></g><g fill="#000000" fill-opacity="1"><g transform="translate(47.731406, 61.600055)"><g><path d="M 12.859375 0.53125 C 8.984375 0.53125 6.226562 -0.488281 4.59375 -2.53125 C 2.96875 -4.570312 2.15625 -7.515625 2.15625 -11.359375 L 2.15625 -24.21875 C 2.15625 -28.15625 2.960938 -31.128906 4.578125 -33.140625 C 6.191406 -35.148438 8.953125 -36.15625 12.859375 -36.15625 C 16.585938 -36.15625 19.226562 -35.257812 20.78125 -33.46875 C 22.332031 -31.675781 23.109375 -29.132812 23.109375 -25.84375 L 23.109375 -22.765625 L 15.40625 -22.765625 L 15.40625 -26.328125 C 15.40625 -27.710938 15.257812 -28.769531 14.96875 -29.5 C 14.675781 -30.238281 13.972656 -30.609375 12.859375 -30.609375 C 11.742188 -30.609375 11.007812 -30.21875 10.65625 -29.4375 C 10.300781 -28.65625 10.125 -27.578125 10.125 -26.203125 L 10.125 -9.421875 C 10.125 -8.015625 10.304688 -6.9375 10.671875 -6.1875 C 11.046875 -5.4375 11.773438 -5.0625 12.859375 -5.0625 C 13.941406 -5.0625 14.632812 -5.4375 14.9375 -6.1875 C 15.25 -6.9375 15.40625 -8.015625 15.40625 -9.421875 L 15.40625 -13.171875 L 23.109375 -13.171875 L 23.109375 -10.078125 C 23.109375 -6.734375 22.332031 -4.128906 20.78125 -2.265625 C 19.226562 -0.398438 16.585938 0.53125 12.859375 0.53125 Z M 12.859375 0.53125 "/></g></g></g></svg>